<mxfile host="app.diagrams.net" modified="2022-03-01T06:47:15.102Z" agent="5.0 (Windows NT 10.0; WOW64) AppleWebKit/537.36 (KHTML, like Gecko) Chrome/98.0.4758.102 Safari/537.36 OPR/84.0.4316.21" etag="9zlF4r0qQRwFbbwKVcZ8" version="16.6.4" type="github">
  <diagram name="Page-1" id="74e2e168-ea6b-b213-b513-2b3c1d86103e">
    <mxGraphModel dx="2337" dy="691" grid="1" gridSize="10" guides="1" tooltips="1" connect="1" arrows="1" fold="1" page="1" pageScale="1" pageWidth="1100" pageHeight="850" background="none" math="0" shadow="0">
      <root>
        <mxCell id="0" />
        <mxCell id="1" parent="0" />
        <mxCell id="DGUaZrM8iTdpTbaGAuqo-44" value="" style="html=1;dashed=0;whitespace=wrap;rounded=0;shadow=1;strokeWidth=1;opacity=20;" vertex="1" parent="1">
          <mxGeometry x="-140" y="630" width="1130" height="240" as="geometry" />
        </mxCell>
        <mxCell id="DGUaZrM8iTdpTbaGAuqo-46" value="Content-Type&#39;:&amp;nbsp;&#39;application/x-www-form-urlencoded&#39;&lt;br&gt;&amp;nbsp;&lt;img&gt;&lt;img src=&quot;data:image/png;base64,iVBORw0KGgoAAAANSUhEUgAAAW4AAAB0CAYAAAClmNjGAAAAAXNSR0IArs4c6QAAAARnQU1BAACxjwv8YQUAAAAJcEhZcwAADsMAAA7DAcdvqGQAABKZSURBVHhe7Z2/bt3GEofvOwS4RTrrzaTCb2IlgAvhVi5TGoYhqE+TJoUAwQ4M2LWr2IlegndnZpecmZ0lec7hkc8e/T6AMMnl/iX344oyNP8ZAAAAdAXEDQAAnQFxAwBAZ0DcAADQGRA3AAB0BsQNAACdAXEDAEBnQNwAANAZEDcAAHQGxA0AAJ0BcQMAQGdA3AAA0BkQNwAAdAbEfXY8Du8uL4aLy3dpT+8/dx6Gv37+7/DXh3yY+PhLGpuL6+Gj2wfg1Dkvcf/9x/Dmp9+G3//Ox3vw6fX/hl9ff85HPZJl/QspSO8/dxrizi81vQ/AqQNxO/oXd5ZQlrXef97U4n58fzXKWu8DcOpsJu5/bn8bfv0pSc9st8MnTv08vGWhPg6/X5U0L1id5tMl7e2DvebtQ05mYeu80/bmdt1UZGEH+cc+PNym/bjNpQ4egyR9MxZXfwz/cGrGtTVu34fh1YsXw4tjiOTDzfDny9vhkf5NIpPtZviak4V/hy8vSxptl8OXbzkp8/VGp/93uL/7N6dkTPlpozrp/Lfb4T4or9Q5iVVEO5Vh2/h4dzn8eZMeAF0PHWt8G9KmxQ1Ar2wjbi81Pi7SJkjcVlQsNyW1f25vjRRZpGP6JOwia5GjriNx1BW3lTTj+jkKe8wv/R7zZGmPLxyfPnJkcZPEikiLpJX0Hu9ujFhZ0uP1WZrquKIpZ4KEHKXp8yJt/TLgOpW85ZhkXM65FTX3U9fj0gHomE3EXVaaE2WFnQ8jQVVyd5j0QJqRpI8q7vpl46/16YQem3qc4jxHhYXmVth0bk7ELo9IsyXmBIs7WIUzemXtZZ33ozY68XqRl3JLnfSysfVD3OB8OMqKm2UUrLinlWaA+4Qg22mJ276Q/MtpRtz5HJdd9TFtpyBufS6LV39i8HmmFW+dxrgytDBHqaZ6719eyj5fL+Vw2dWLxIo5vqZgrxUgbnA+bChuLSMvzyVxL63IT0Xcks7toPatWD3r8jh9puwnIRC3laAIzkgvXAFP+E8pFZx/WqFTfVT+1xs6l+qjvHRNKSOsL1hxQ9zgmbKJuEeZNVkQd15t+2+/O4s7egHsSP3TgiPX++aqfkFU4vb9qvrZ4tjfuLUUnajzSnkSnKTPiXteogkuU31aoTbc3Iiw0yEL/I7OlYFxbUrs+p09ehn5lT8AvbLNijsLya66axHPCUuEWfImKT5QmbuKO+FW/7tLXOqayvASz+nB5w3bB9qC9gVjVbfxCX45qTYvM5bemJ6k+mH6jEGwRFX+SupLdeSXwyjmfL1ZIbtPLV7Siy+LvOqe6pdjiBucAxuIO5BqYnHl2i1xf4lqxX2KVCtuAEBvbCDu+PMEf9s9dYntwZycIW4AwFNwvE8lJySw+hOG21a0lV9EfH37pwiIGwDwFGwjbgAAAE8GxA0AAJ0BcQMAQGdA3AAA0BkQNwAAdAbEDQAAnQFxAwBAZ0DcAADQGRA3AAB0BsQNAACdAXEDAEBnQNwAANAZEDcAAHQGxH0IJrzaRjxcDxcXF8M1BZ3Q+xkb5CBvLqCADXRg/xIgp6mI7oz+i4E5qIEOOFDqlHNBQAKXJ2pjFcDAB0rQEXKWKHlNv227lgItyBjpsSmBF7b7y4nLwR7W0ohCtGIclgifJ9rUM1IHzkjbrv3Kz0jZbFi5Dfj+brhKc+XqfWqV3j9TIO5DOJq4r4Z3391+ZlEGNEH8pFPXrxV3NHFFBk4MWR5aFFUbuUwXuszl2Qmu85IDDU+y30fcug3LIdp2ZTNx8z29rYW8Yhx2h8bBvkTDZ2YX/P3Pz8ym8s6y5kWO3j9TIO5DOIa4+aHLstb7mZ1lkCd3mTRL4ubyKR7kKLA0kVN9X1I+mWhaDLLvJ2DdRpHiWqkuUvpk4lTuIu58bernmD+Nwf3dbSWtQzi4nxm6Z9QvuTfq3q0Yh12Jno/DxL32GTmUj8P1KGu9f55sIm4OIPD6sw1Y4AMK+GALVcABH+uxjlE5BTOQbYy60xQoRedRcR9dPEofcb0EPdb9CCP76DKCeh/fXw4vXrwYXh3hwdn5gd9D3DTJJAK7pMlxLe5WW/x5PlYrWTmekQu3x032fI7zjH2iF0IpNxb311wXb2Ob6NqcP58bI84H4m6Ji8+Xsqs6Gm1YUY6VnGqTuk/MinFg8tiNm2qjgctT5Wda/ff4+85wmcG95jbVYw3WsZ24SWKjCH04syTl11rUdbgzFqITqWY2ugy/FAJx6/MsbR28N78oVJ2jlEs9nH/Kw+m6DY0XximJmyeduj6chEoIVD6LI50TYcvkonxG3Gl1Gk1ygtuoRdGSQU4PBa4ntp/8o7CkLjkfiJvKH/tKctN9KP2if4vAdxO3pc5btSGQmL8/FTQOY7r0YZdx0NcsMd1ji75X4xaMB/fX96VVv2t7VT5tpaw8bvU16/p1jmwnbidVPjcjYi9qkWa0ahbk5RBETWfUylrLWu2HLwYn3krM+QUjK3+3eieaK/3jET7kLamw/AJR+OuVuKfJSzKj76cyeabzIgape0bcZdKpsiMmKdTXSDk3qR1OKFoGtM91BeJ2EuFz3Hcl2dQ++kY89jmQQThmBifLTN0GuW7sS0tqimncBdOWFeMg17jxi5i5T8v9F6Ixb/ZxRd9Bm+OKW50T8ZKc1eZEKvLOmyuPsGVoYcrqmQRL17y5+k1kS2LlchqR2aMVdetl465lfpS4/eSIyNL2EzachKG4633JN4mh1RZ7PpaaRa6p5ZDPz8qArqF9W0/UtumcFrTfV33jF0q9+THlawOx1W2QNo75F15quj0FU+aKcWCyvEv763sR5FHMijs/Z+FGeXLdVdmcT9reHGvTzyB97Pvz42jiNhJkwVnpzUoy3S7/GcPjV8d0/PaB8iWRkmRTXm5XLiOsL1pxt+rsSdz5QfeCIZrizmVqWWsmOelJLvu+vKqNqvwWUb9KW6s2G2ElUvn3dw9GPnPliRCjSR8LLByzArWl0be6DVL+OL6+H56mFHOeFeNQwWXaOqOx0sz2XxGX4/qcWaoTzHMccbPkpl8uykpZCY6Ft0LMM+m+Tjp+8/qWhZ0eCxb473SurLKrl8eu39ndqr30IRD3j/3GLau05kSrJq5cXyYWTdL14iZsfqJuY71ytDTKGFejLr0SXkrPn1Sa4uY8JZ3Ks/ISdhV3qxyhHgcvMTlu3c+4XlXGinGoiPLM9IE4TNzlXqo6zL0A+7DtLyfHza1M063kFXRJT8L9RHlGSbr0fE21gtfpXphZpPZlMR0Tvp3+08nSy6K8kCR/qp+PT0vcPMnSpKg2NfFkIk1pXiRaoAXOE4o7kVeGJV/URqlz+hyj67dtmNrXrKOST5AnXz9tXhyRrIK+JVriisd6Krceh2h85ZwuQ9LjthBjuXuNgy2zXF9v0yecsJ8tQTeeTV9P1C+wnqN9KgEAAEPzhQl2BeIGADwR7ieO9NOA/ekDrAXiBgA8IfRNvXwywep7XzYRNwAAgKcD4gYAgM6AuAEAoDMgbgAA6AyIGwAAOgPiBgCAzoC4AQCgMyBuAADoDIgbAAA6A+IGAIDOgLgBAKAzIG4AAOgMiBsAADoD4t6F7++Gq4uL4er9o91fjf7LaP4P6gvmj9ZHf5T+4DYAAHoH4t6FLMprCoai93cmioRiaUYT2awNAIBegbh34uNwPYpS7+/KAeLerA0AgF7ZTtxj8Ny8BYEVfNxIG/NRgvdO6TqWo8SklCjurfwJ1wYdb3Lk4RXHg7w81ucFH+MvDLJ6iLgBAM+dbcTNQXN9gGALS7sZJaeOuC6BfYu8J2GPMvZR2/2xizQ/clRxPwx/aVE3o1lD3ACA/dlQ3MEKuLAkdpauj5YuMhfxirht+WUVLkf0YvD1L0ZtPzotQUPcAID92e5TSZZ3+JkiFPNEHLNSy7otbp1e6jbbE4vb/K+QvEHcAIAtOc4vJ8PPFluvuHV6vOJ+ali2P98MX/MxVtwAgGNwHHFXos4r4h2+cdtv4rW47TfwhH9ZtDjiN25ebSvZisghbgDAtmwjbpam+jyhVsIT9ecMs0J2n1qs5INPIdFLYE07jv3LSf2Z5OaBZT4K2v+PE3Wd4PKPm17FAwCeO8dZcW9O9KkEAACeJxA3AAB0BsQNAACd0Ym4AQAAFCBuAADoDIgbAAA6A+IGAIDOgLgBAKAzIG4AAOgMiBsAADoD4gYAgM6AuAEAoDMgbgAA6AyIGwAAOgPiBgCAzoC4AQCgMyDuU+Pheri4uBiuKbaC3s+UqDp6q6PIryUHbtCR6XN0Hl9HicYj9V8OX77J1UJUzgxRQImgDa0IQRxpKKqLyjVRg3xf9ghI4do6tWk5itEyNnBGVVYwTmF9326He32dGptVkZRm8q+jfmaiZ7IdEWoDvr8brtJcuaIAKXr/TIG4Tw2W9dXw7rvbD5GJv624J1qC9CHa/PEiLCQtUWnHWimuE3eWiWlXqmcHKUUvqce7m3y8hbgLjbIa42T6nqVr8qZ85ZlYFHfOPz1D889ETdB2brd/udN16Vwav52elbVkWfMiR++fKRD3qcEPXZa13g+RSba/uOdpClJP9mrir6ASktQ1Tf55KbKMFsQt0j0g5Ntiv36EuBOmXZJvTrJL4g7vcVRvk+AZ5DY6cdM5bgdd76W+BR+H61HWev882UTcHLg3iBE5G1Oyiuru4kq6mJJcx+vP6TlRcSXpOFPSJYhwnc7MxLWU/H+MbXj7IAGMfQBiDmI8luH7IDy+v+S4lq+O/uDE4hZppQlptjwReVK6tMbEb4o7IUJIK7tKHNImLyEjUi+GaqJ7kWVB5Wu0jHi/1E/l8v5KqWYJ6rEoeXQdMaWOh9w22cZ70ZRfJK5Ge8My1LWRIB2lH195/HM7x/sVPz/6vLlvI/YeyzWlnHyv3HMz3aeV9wbM8kTiFgnWAYQLWdpKtDbKe67DyNKWOaaXMrKkpzpTHUnMUxttZPmSn64XOZOwbT/iNtXy/qHi5smuJnNTIMKcnOfSxgkaiKOWnpus3CbKO212IuvrAxFQ/lw+tzH3b5KDFUtIlvY0draNXO4KcU/CyvWXsebyg3EPz7vxKcyIm/vp73VAkeo4fqbfNE5Rfv1ctZ4x165cbn0vCWmzGSc1tmMb/VauUWXbbb7v58yTirtaARdYsk6AfG5a7daStHUst6GGRZzbpPPr87QvZVAf7Op7+YV0bOpJNcmr0Jqcwt7iHidTUDanqfN8rCZ6NfGlH9OELyK75fNVG0Zxp3zp3y+pnTQGU999eTX1OFl5WnFLeVYWgWxNv9W46/77sWCCsoitxK0kaetSbTRIf8tz5Z8DOjZt5Xbk67l/euwSvs9mnMA+PN2nkiLvvJk0/fnDbE7cpg7LmjbwNb6OteKuPvVM2ymJ209mWc34yT+xr7iL2EiaVgyCntyVJCMh0bmxnCwnI0pFEQH9m8ql8qmu8m9ThIq6bzZPLTxCiy6owwhJ0ssL5f7lpdwn089Co73ROOV7zteuEGDdD11X8Pwwup+JMt584NJ0ewp8/VRu3QZbL6en42oreXJ59TXzfT9nnlDcCv8ZI1pxOw4WN78cgu/VB624fzTBxOPJvv7h3kvcuQ6uN0+qUDo88UgUrg2BkOzkVnLha13+LJIvKc/YhpSXXiKlHeXF0ngCF8Ud1mukFciW2zXloTr++kDX2ZdMPaZBWUQwTrZdgTQd8+Ju3OOqXsnDY01p+vp8/80zaJ5LyWufybxV4wDWsom4RYqTeFl8ScxNcVefGESyRZYRh4qb0/XLoazyV4s7n59pQ+GY37i/3qlJGExsmohzE9kTTtxMnCaTUp+XFZOXHE3YdO6DSNU8CVW7vYCsXKrysyymc5McRoGUa0z7Uz3l2LRhyq/HjvtftdPWacbaiZvafX9zw8KW6+VlU9+foCzCj1Puk75OxsaJM+Urx0viljp0fn8vMnRd6geNiamrjF3reXBjMuL7BnZiG3EX8ZIIs7C18KLPDLXUbRm8KUkeKu6q/HTtJ8qzg7gJTtNtDH5SOOovJ0dp0RZMCJM+bXayTdRyzhPRl5Enfy0zIudxgg6lQmRZ6C2SgZaH1FvO5ZeHqq+k23LydeNm213ylHLp2AtLXyPbenF7KVbjEYwDb+blYtOqsST8dV6ic+ImXP6wjmDMJ/w4uzGYyRPXBZbYSNzgNAgmZUKEEa9uWExG3M+VeOwAOEUg7rNCVjHhqjGveh7vbqsfvbHqISBu0A8Q97kRfSoxP6raH2sh7QLEDfoB4gYAgM6AuAEAoDMgbgAA6AyIGwAAOgPiBgCAzoC4AQCgMyBuAADoDIgbAAA6A+IGAIDOgLgBAKAzIG4AAOgMiBsAALpiGP4PZts4fRzA1MAAAAAASUVORK5CYII=&quot; width=&quot;366&quot; height=&quot;116&quot;&gt;&lt;br&gt;,&lt;br&gt;&lt;br&gt;&lt;br&gt;" style="text;html=1;strokeColor=none;fillColor=none;align=center;verticalAlign=middle;whiteSpace=wrap;rounded=0;shadow=1;opacity=20;" vertex="1" parent="1">
          <mxGeometry x="-29" y="690" width="150" height="137.5" as="geometry" />
        </mxCell>
        <mxCell id="DGUaZrM8iTdpTbaGAuqo-7" value="UAA" style="rounded=0;whiteSpace=wrap;html=1;" vertex="1" parent="1">
          <mxGeometry x="600" y="60" width="120" height="60" as="geometry" />
        </mxCell>
        <mxCell id="DGUaZrM8iTdpTbaGAuqo-10" value="" style="endArrow=none;dashed=1;html=1;rounded=0;entryX=0.5;entryY=1;entryDx=0;entryDy=0;" edge="1" parent="1">
          <mxGeometry width="50" height="50" relative="1" as="geometry">
            <mxPoint x="130" y="1550" as="sourcePoint" />
            <mxPoint x="130" y="120" as="targetPoint" />
            <Array as="points" />
          </mxGeometry>
        </mxCell>
        <mxCell id="DGUaZrM8iTdpTbaGAuqo-11" value="" style="endArrow=none;dashed=1;html=1;rounded=0;entryX=0.5;entryY=1;entryDx=0;entryDy=0;startArrow=none;" edge="1" parent="1" source="DGUaZrM8iTdpTbaGAuqo-26" target="DGUaZrM8iTdpTbaGAuqo-7">
          <mxGeometry width="50" height="50" relative="1" as="geometry">
            <mxPoint x="660" y="550" as="sourcePoint" />
            <mxPoint x="700" y="120" as="targetPoint" />
            <Array as="points" />
          </mxGeometry>
        </mxCell>
        <mxCell id="DGUaZrM8iTdpTbaGAuqo-15" value="&lt;hr&gt;" style="edgeLabel;html=1;align=center;verticalAlign=middle;resizable=0;points=[];" vertex="1" connectable="0" parent="DGUaZrM8iTdpTbaGAuqo-11">
          <mxGeometry x="0.1721" y="3" relative="1" as="geometry">
            <mxPoint as="offset" />
          </mxGeometry>
        </mxCell>
        <mxCell id="DGUaZrM8iTdpTbaGAuqo-16" value="clientId,clientKey" style="text;html=1;align=center;verticalAlign=middle;resizable=0;points=[];autosize=1;strokeColor=none;fillColor=none;" vertex="1" parent="1">
          <mxGeometry x="320" y="160" width="110" height="20" as="geometry" />
        </mxCell>
        <mxCell id="DGUaZrM8iTdpTbaGAuqo-17" value="1:校验客户端&lt;br&gt;" style="text;html=1;align=center;verticalAlign=middle;resizable=0;points=[];autosize=1;strokeColor=none;fillColor=none;" vertex="1" parent="1">
          <mxGeometry x="670" y="160" width="90" height="20" as="geometry" />
        </mxCell>
        <mxCell id="DGUaZrM8iTdpTbaGAuqo-18" value="2：生成会话id，aes密钥，rsa公钥和私钥" style="text;html=1;align=center;verticalAlign=middle;resizable=0;points=[];autosize=1;strokeColor=none;fillColor=none;" vertex="1" parent="1">
          <mxGeometry x="670" y="180" width="240" height="20" as="geometry" />
        </mxCell>
        <mxCell id="DGUaZrM8iTdpTbaGAuqo-22" value="" style="shape=umlActor;verticalLabelPosition=bottom;verticalAlign=top;html=1;outlineConnect=0;" vertex="1" parent="1">
          <mxGeometry x="120" y="60" width="30" height="60" as="geometry" />
        </mxCell>
        <mxCell id="DGUaZrM8iTdpTbaGAuqo-27" value="" style="html=1;verticalAlign=bottom;endArrow=block;entryX=0;entryY=0;rounded=0;" edge="1" target="DGUaZrM8iTdpTbaGAuqo-26" parent="1">
          <mxGeometry x="0.1048" y="40" relative="1" as="geometry">
            <mxPoint x="130" y="190" as="sourcePoint" />
            <mxPoint as="offset" />
          </mxGeometry>
        </mxCell>
        <mxCell id="DGUaZrM8iTdpTbaGAuqo-28" value="服务器公钥" style="html=1;verticalAlign=bottom;endArrow=open;dashed=1;endSize=8;exitX=0;exitY=0.95;rounded=0;" edge="1" source="DGUaZrM8iTdpTbaGAuqo-26" parent="1">
          <mxGeometry relative="1" as="geometry">
            <mxPoint x="130" y="266" as="targetPoint" />
            <Array as="points">
              <mxPoint x="140" y="266" />
            </Array>
          </mxGeometry>
        </mxCell>
        <mxCell id="DGUaZrM8iTdpTbaGAuqo-26" value="" style="html=1;points=[];perimeter=orthogonalPerimeter;" vertex="1" parent="1">
          <mxGeometry x="655" y="190" width="10" height="80" as="geometry" />
        </mxCell>
        <mxCell id="DGUaZrM8iTdpTbaGAuqo-29" value="" style="endArrow=none;dashed=1;html=1;rounded=0;entryX=0.5;entryY=1;entryDx=0;entryDy=0;" edge="1" parent="1" target="DGUaZrM8iTdpTbaGAuqo-26">
          <mxGeometry width="50" height="50" relative="1" as="geometry">
            <mxPoint x="660" y="1560" as="sourcePoint" />
            <mxPoint x="660" y="120" as="targetPoint" />
            <Array as="points" />
          </mxGeometry>
        </mxCell>
        <mxCell id="DGUaZrM8iTdpTbaGAuqo-31" value="" style="html=1;points=[];perimeter=orthogonalPerimeter;" vertex="1" parent="1">
          <mxGeometry x="655" y="360" width="10" height="80" as="geometry" />
        </mxCell>
        <mxCell id="DGUaZrM8iTdpTbaGAuqo-32" value="交换公钥" style="html=1;verticalAlign=bottom;endArrow=block;entryX=0;entryY=0;rounded=0;" edge="1" target="DGUaZrM8iTdpTbaGAuqo-31" parent="1">
          <mxGeometry relative="1" as="geometry">
            <mxPoint x="130" y="360" as="sourcePoint" />
          </mxGeometry>
        </mxCell>
        <mxCell id="DGUaZrM8iTdpTbaGAuqo-33" value="客户端私钥解密 获取aes密钥" style="html=1;verticalAlign=bottom;endArrow=open;dashed=1;endSize=8;exitX=0;exitY=0.95;rounded=0;" edge="1" source="DGUaZrM8iTdpTbaGAuqo-31" parent="1">
          <mxGeometry relative="1" as="geometry">
            <mxPoint x="130" y="440" as="targetPoint" />
          </mxGeometry>
        </mxCell>
        <mxCell id="DGUaZrM8iTdpTbaGAuqo-34" value="&lt;div style=&quot;text-align: justify&quot;&gt;&lt;span&gt;1：生产rsa公钥和私钥&lt;/span&gt;&lt;/div&gt;2：用服务端公钥加密自己的公钥&lt;br&gt;" style="text;html=1;align=center;verticalAlign=middle;resizable=0;points=[];autosize=1;strokeColor=none;fillColor=none;" vertex="1" parent="1">
          <mxGeometry x="-30" y="385" width="190" height="30" as="geometry" />
        </mxCell>
        <mxCell id="DGUaZrM8iTdpTbaGAuqo-35" value="用私钥解密获取客户端公钥，用客户端公钥加密 aes密钥" style="text;html=1;align=center;verticalAlign=middle;resizable=0;points=[];autosize=1;strokeColor=none;fillColor=none;" vertex="1" parent="1">
          <mxGeometry x="670" y="385" width="310" height="20" as="geometry" />
        </mxCell>
        <mxCell id="DGUaZrM8iTdpTbaGAuqo-37" value="" style="rounded=0;whiteSpace=wrap;html=1;opacity=20;shadow=1;perimeterSpacing=1;strokeWidth=1;" vertex="1" parent="1">
          <mxGeometry x="-120" y="160" width="1180" height="360" as="geometry" />
        </mxCell>
        <mxCell id="DGUaZrM8iTdpTbaGAuqo-38" value="加密" style="text;strokeColor=none;fillColor=none;html=1;fontSize=24;fontStyle=1;verticalAlign=middle;align=center;rounded=0;shadow=1;opacity=10;" vertex="1" parent="1">
          <mxGeometry x="-120" y="170" width="100" height="40" as="geometry" />
        </mxCell>
        <mxCell id="DGUaZrM8iTdpTbaGAuqo-40" value="" style="html=1;points=[];perimeter=orthogonalPerimeter;rounded=0;shadow=1;strokeWidth=1;opacity=20;" vertex="1" parent="1">
          <mxGeometry x="655" y="680" width="10" height="80" as="geometry" />
        </mxCell>
        <mxCell id="DGUaZrM8iTdpTbaGAuqo-41" value="&lt;pre style=&quot;background-color: #2b2b2b ; color: #a9b7c6 ; font-family: &amp;#34;consolas&amp;#34; , monospace ; font-size: 12.0pt&quot;&gt;&lt;span style=&quot;color: #6a8759&quot;&gt;/oauth/token&lt;/span&gt;&lt;/pre&gt;" style="html=1;verticalAlign=bottom;endArrow=block;entryX=0;entryY=0;rounded=0;" edge="1" target="DGUaZrM8iTdpTbaGAuqo-40" parent="1">
          <mxGeometry x="0.0286" relative="1" as="geometry">
            <mxPoint x="130" y="680" as="sourcePoint" />
            <mxPoint as="offset" />
          </mxGeometry>
        </mxCell>
        <mxCell id="DGUaZrM8iTdpTbaGAuqo-42" value="&amp;nbsp; 1：accessToken&lt;br&gt;2:refreshToken" style="html=1;verticalAlign=bottom;endArrow=open;dashed=1;endSize=8;exitX=0;exitY=0.95;rounded=0;" edge="1" source="DGUaZrM8iTdpTbaGAuqo-40" parent="1">
          <mxGeometry relative="1" as="geometry">
            <mxPoint x="130" y="760" as="targetPoint" />
          </mxGeometry>
        </mxCell>
        <mxCell id="DGUaZrM8iTdpTbaGAuqo-45" value="oauth2-password" style="text;strokeColor=none;fillColor=none;html=1;fontSize=24;fontStyle=1;verticalAlign=middle;align=center;rounded=0;shadow=1;opacity=10;" vertex="1" parent="1">
          <mxGeometry x="-90" y="630" width="100" height="40" as="geometry" />
        </mxCell>
        <mxCell id="DGUaZrM8iTdpTbaGAuqo-48" value="&lt;div style=&quot;text-align: left&quot;&gt;&lt;span&gt;headers:&lt;/span&gt;&lt;/div&gt;Authorization : base64(clientId + clientKey)&lt;br&gt;&lt;div style=&quot;text-align: left&quot;&gt;&lt;span&gt;X-Herodotus-Session:sessionId&lt;/span&gt;&lt;/div&gt;" style="text;html=1;strokeColor=none;fillColor=none;align=center;verticalAlign=middle;whiteSpace=wrap;rounded=0;shadow=1;opacity=20;" vertex="1" parent="1">
          <mxGeometry x="-120" y="828" width="240" height="32" as="geometry" />
        </mxCell>
        <mxCell id="DGUaZrM8iTdpTbaGAuqo-55" value="" style="html=1;points=[];perimeter=orthogonalPerimeter;rounded=0;shadow=1;strokeWidth=1;opacity=20;" vertex="1" parent="1">
          <mxGeometry x="655" y="970" width="10" height="80" as="geometry" />
        </mxCell>
        <mxCell id="DGUaZrM8iTdpTbaGAuqo-56" value="" style="html=1;verticalAlign=bottom;endArrow=block;entryX=0;entryY=0;rounded=0;" edge="1" target="DGUaZrM8iTdpTbaGAuqo-55" parent="1">
          <mxGeometry relative="1" as="geometry">
            <mxPoint x="130" y="970" as="sourcePoint" />
          </mxGeometry>
        </mxCell>
        <mxCell id="DGUaZrM8iTdpTbaGAuqo-57" value="" style="html=1;verticalAlign=bottom;endArrow=open;dashed=1;endSize=8;exitX=0;exitY=0.95;rounded=0;" edge="1" source="DGUaZrM8iTdpTbaGAuqo-55" parent="1">
          <mxGeometry relative="1" as="geometry">
            <mxPoint x="130" y="1046" as="targetPoint" />
          </mxGeometry>
        </mxCell>
        <mxCell id="DGUaZrM8iTdpTbaGAuqo-63" value="&amp;nbsp;" style="text;html=1;align=center;verticalAlign=middle;resizable=0;points=[];autosize=1;strokeColor=none;fillColor=none;" vertex="1" parent="1">
          <mxGeometry x="40" y="970" width="20" height="20" as="geometry" />
        </mxCell>
        <mxCell id="DGUaZrM8iTdpTbaGAuqo-64" value="oauth/authorize?response_type=code&amp;amp;client_id=010e659a-4005-4610-98f6-00b822f4758e&amp;amp;redirect_uri=http://www.baidu.com" style="text;html=1;align=center;verticalAlign=middle;resizable=0;points=[];autosize=1;strokeColor=none;fillColor=none;" vertex="1" parent="1">
          <mxGeometry x="-130" y="940" width="690" height="20" as="geometry" />
        </mxCell>
        <mxCell id="DGUaZrM8iTdpTbaGAuqo-65" value="&lt;span style=&quot;font-size: 24px ; font-weight: 700&quot;&gt;oauth2-authcode&lt;/span&gt;" style="text;html=1;align=center;verticalAlign=middle;resizable=0;points=[];autosize=1;strokeColor=none;fillColor=none;" vertex="1" parent="1">
          <mxGeometry x="-140" y="920" width="210" height="20" as="geometry" />
        </mxCell>
        <mxCell id="DGUaZrM8iTdpTbaGAuqo-66" value="&lt;span style=&quot;font-size: 11px ; background-color: rgb(255 , 255 , 255)&quot;&gt;authcode&lt;/span&gt;" style="text;html=1;align=center;verticalAlign=middle;resizable=0;points=[];autosize=1;strokeColor=none;fillColor=none;" vertex="1" parent="1">
          <mxGeometry x="345" y="1055" width="60" height="20" as="geometry" />
        </mxCell>
        <mxCell id="DGUaZrM8iTdpTbaGAuqo-67" value="" style="shape=ext;double=1;rounded=0;whiteSpace=wrap;html=1;shadow=1;strokeWidth=1;opacity=20;" vertex="1" parent="1">
          <mxGeometry x="-140" y="900" width="990" height="310" as="geometry" />
        </mxCell>
        <mxCell id="DGUaZrM8iTdpTbaGAuqo-68" value="oauth/token?grant_type=authorization_code&amp;amp;code=UaiXEU&amp;amp;redirect_uri=http://www.baidu.com" style="text;html=1;align=center;verticalAlign=middle;resizable=0;points=[];autosize=1;strokeColor=none;fillColor=none;" vertex="1" parent="1">
          <mxGeometry x="30" y="1090" width="520" height="20" as="geometry" />
        </mxCell>
        <mxCell id="DGUaZrM8iTdpTbaGAuqo-69" value="" style="html=1;points=[];perimeter=orthogonalPerimeter;rounded=0;shadow=1;strokeWidth=1;opacity=20;" vertex="1" parent="1">
          <mxGeometry x="655" y="1110" width="10" height="80" as="geometry" />
        </mxCell>
        <mxCell id="DGUaZrM8iTdpTbaGAuqo-70" value="&amp;nbsp;" style="html=1;verticalAlign=bottom;endArrow=block;entryX=0;entryY=0;rounded=0;" edge="1" target="DGUaZrM8iTdpTbaGAuqo-69" parent="1">
          <mxGeometry relative="1" as="geometry">
            <mxPoint x="130" y="1110" as="sourcePoint" />
          </mxGeometry>
        </mxCell>
        <mxCell id="DGUaZrM8iTdpTbaGAuqo-71" value="&amp;nbsp; 1：accessToken&lt;br&gt;2:refreshToken" style="html=1;verticalAlign=bottom;endArrow=open;dashed=1;endSize=8;exitX=0;exitY=0.95;rounded=0;" edge="1" source="DGUaZrM8iTdpTbaGAuqo-69" parent="1">
          <mxGeometry relative="1" as="geometry">
            <mxPoint x="130" y="1190" as="targetPoint" />
          </mxGeometry>
        </mxCell>
        <mxCell id="DGUaZrM8iTdpTbaGAuqo-75" value="&lt;span style=&quot;font-size: 24px ; font-weight: 700&quot;&gt;oauth2-client&lt;/span&gt;" style="text;html=1;align=center;verticalAlign=middle;resizable=0;points=[];autosize=1;strokeColor=none;fillColor=none;" vertex="1" parent="1">
          <mxGeometry x="-115" y="1250" width="160" height="20" as="geometry" />
        </mxCell>
        <mxCell id="DGUaZrM8iTdpTbaGAuqo-76" value="http://10.5.5.13:8847/cityll-cloudfrmwk-uaa/oauth/token" style="text;html=1;align=center;verticalAlign=middle;resizable=0;points=[];autosize=1;strokeColor=none;fillColor=none;" vertex="1" parent="1">
          <mxGeometry x="190" y="1290" width="310" height="20" as="geometry" />
        </mxCell>
        <mxCell id="DGUaZrM8iTdpTbaGAuqo-78" value="" style="html=1;points=[];perimeter=orthogonalPerimeter;rounded=0;shadow=1;strokeWidth=1;opacity=20;" vertex="1" parent="1">
          <mxGeometry x="655" y="1310" width="10" height="80" as="geometry" />
        </mxCell>
        <mxCell id="DGUaZrM8iTdpTbaGAuqo-79" value="&amp;nbsp;" style="html=1;verticalAlign=bottom;endArrow=block;entryX=0;entryY=0;rounded=0;" edge="1" target="DGUaZrM8iTdpTbaGAuqo-78" parent="1">
          <mxGeometry relative="1" as="geometry">
            <mxPoint x="130" y="1310" as="sourcePoint" />
          </mxGeometry>
        </mxCell>
        <mxCell id="DGUaZrM8iTdpTbaGAuqo-80" value="&amp;nbsp;" style="html=1;verticalAlign=bottom;endArrow=open;dashed=1;endSize=8;exitX=0;exitY=0.95;rounded=0;" edge="1" source="DGUaZrM8iTdpTbaGAuqo-78" parent="1">
          <mxGeometry relative="1" as="geometry">
            <mxPoint x="130" y="1386" as="targetPoint" />
          </mxGeometry>
        </mxCell>
        <mxCell id="DGUaZrM8iTdpTbaGAuqo-82" value="&lt;div&gt;grant_type:client_credentials&lt;/div&gt;&lt;div&gt;scope:all&lt;/div&gt;&lt;div&gt;client_id:010e659a-4005-4610-98f6-00b822f4758e&lt;/div&gt;&lt;div&gt;client_secret:04165a07-cffd-45cf-a20a-1c2a69f65fb1&lt;/div&gt;&lt;div&gt;&lt;br&gt;&lt;/div&gt;" style="text;html=1;align=left;verticalAlign=middle;resizable=0;points=[];autosize=1;strokeColor=none;fillColor=none;" vertex="1" parent="1">
          <mxGeometry x="-85" y="1290" width="300" height="80" as="geometry" />
        </mxCell>
        <mxCell id="DGUaZrM8iTdpTbaGAuqo-84" value="&lt;div&gt;{&lt;/div&gt;&lt;div&gt;&lt;span&gt;	&lt;/span&gt;&quot;access_token&quot;: &quot;...&quot;&lt;/div&gt;&lt;div&gt;&lt;span&gt;	&lt;/span&gt;&quot;token_type&quot;: &quot;bearer&quot;,&lt;/div&gt;&lt;div&gt;&lt;span&gt;	&lt;/span&gt;&quot;expires_in&quot;: 43199,&lt;/div&gt;&lt;div&gt;&lt;span&gt;	&lt;/span&gt;&quot;scope&quot;: &quot;all&quot;,&lt;/div&gt;&lt;div&gt;&lt;span&gt;	&lt;/span&gt;&quot;jti&quot;: &quot;081faa62-d4ed-44da-aaa2-98c1dd8625ce&quot;&lt;/div&gt;&lt;div&gt;}&lt;/div&gt;" style="text;html=1;align=left;verticalAlign=middle;resizable=0;points=[];autosize=1;strokeColor=none;fillColor=none;" vertex="1" parent="1">
          <mxGeometry x="260" y="1390" width="270" height="100" as="geometry" />
        </mxCell>
        <mxCell id="DGUaZrM8iTdpTbaGAuqo-85" value="" style="html=1;dashed=0;whitespace=wrap;rounded=0;shadow=1;strokeWidth=1;opacity=20;" vertex="1" parent="1">
          <mxGeometry x="-140" y="1250" width="910" height="270" as="geometry" />
        </mxCell>
      </root>
    </mxGraphModel>
  </diagram>
</mxfile>
